<svg width="323" height="122" viewBox="0 0 323 122" fill="none" xmlns="http://www.w3.org/2000/svg">
<path d="M15.42 58V16H36.12C40.8 16 44.92 16.86 48.48 18.58C52.04 20.26 54.82 22.66 56.82 25.78C58.82 28.9 59.82 32.62 59.82 36.94C59.82 41.3 58.82 45.06 56.82 48.22C54.82 51.34 52.04 53.76 48.48 55.48C44.92 57.16 40.8 58 36.12 58H15.42ZM29.58 46.96H35.52C37.52 46.96 39.26 46.58 40.74 45.82C42.26 45.06 43.44 43.94 44.28 42.46C45.12 40.94 45.54 39.1 45.54 36.94C45.54 34.82 45.12 33.02 44.28 31.54C43.44 30.06 42.26 28.94 40.74 28.18C39.26 27.42 37.52 27.04 35.52 27.04H29.58V46.96ZM59.8444 58L78.2044 16H92.1244L110.484 58H95.8444L82.2844 22.72H87.8044L74.2444 58H59.8444ZM70.7644 50.68L74.3644 40.48H93.6844L97.2844 50.68H70.7644ZM134.178 58.96C130.778 58.96 127.618 58.42 124.698 57.34C121.818 56.26 119.318 54.74 117.198 52.78C115.078 50.78 113.418 48.44 112.218 45.76C111.058 43.08 110.478 40.16 110.478 37C110.478 33.8 111.058 30.88 112.218 28.24C113.418 25.56 115.078 23.24 117.198 21.28C119.318 19.28 121.818 17.74 124.698 16.66C127.618 15.58 130.778 15.04 134.178 15.04C137.618 15.04 140.778 15.58 143.658 16.66C146.538 17.74 149.038 19.28 151.158 21.28C153.278 23.24 154.918 25.56 156.078 28.24C157.278 30.88 157.878 33.8 157.878 37C157.878 40.16 157.278 43.08 156.078 45.76C154.918 48.44 153.278 50.78 151.158 52.78C149.038 54.74 146.538 56.26 143.658 57.34C140.778 58.42 137.618 58.96 134.178 58.96ZM134.178 47.5C135.498 47.5 136.718 47.26 137.838 46.78C138.998 46.3 139.998 45.62 140.838 44.74C141.718 43.82 142.398 42.72 142.878 41.44C143.358 40.12 143.598 38.64 143.598 37C143.598 35.36 143.358 33.9 142.878 32.62C142.398 31.3 141.718 30.2 140.838 29.32C139.998 28.4 138.998 27.7 137.838 27.22C136.718 26.74 135.498 26.5 134.178 26.5C132.858 26.5 131.618 26.74 130.458 27.22C129.338 27.7 128.338 28.4 127.458 29.32C126.618 30.2 125.958 31.3 125.478 32.62C124.998 33.9 124.758 35.36 124.758 37C124.758 38.64 124.998 40.12 125.478 41.44C125.958 42.72 126.618 43.82 127.458 44.74C128.338 45.62 129.338 46.3 130.458 46.78C131.618 47.26 132.858 47.5 134.178 47.5ZM183.118 58.96C176.678 58.96 171.658 57.22 168.058 53.74C164.458 50.26 162.658 45.38 162.658 39.1V16H176.818V38.68C176.818 41.88 177.398 44.16 178.558 45.52C179.718 46.84 181.278 47.5 183.238 47.5C185.238 47.5 186.798 46.84 187.918 45.52C189.078 44.16 189.658 41.88 189.658 38.68V16H203.578V39.1C203.578 45.38 201.778 50.26 198.178 53.74C194.578 57.22 189.558 58.96 183.118 58.96ZM210.068 58V16H230.768C235.448 16 239.568 16.86 243.128 18.58C246.688 20.26 249.468 22.66 251.468 25.78C253.468 28.9 254.468 32.62 254.468 36.94C254.468 41.3 253.468 45.06 251.468 48.22C249.468 51.34 246.688 53.76 243.128 55.48C239.568 57.16 235.448 58 230.768 58H210.068ZM224.228 46.96H230.168C232.168 46.96 233.908 46.58 235.388 45.82C236.908 45.06 238.088 43.94 238.928 42.46C239.768 40.94 240.188 39.1 240.188 36.94C240.188 34.82 239.768 33.02 238.928 31.54C238.088 30.06 236.908 28.94 235.388 28.18C233.908 27.42 232.168 27.04 230.168 27.04H224.228V46.96ZM254.493 58L272.853 16H286.773L305.133 58H290.493L276.933 22.72H282.453L268.893 58H254.493ZM265.413 50.68L269.013 40.48H288.333L291.933 50.68H265.413Z" fill="black"/>
<path d="M19.08 109.96C15.56 109.96 12.16 109.56 8.88 108.76C5.6 107.96 2.9 106.92 0.78 105.64L5.34 95.32C7.34 96.48 9.56 97.42 12 98.14C14.48 98.82 16.88 99.16 19.2 99.16C20.56 99.16 21.62 99.08 22.38 98.92C23.18 98.72 23.76 98.46 24.12 98.14C24.48 97.78 24.66 97.36 24.66 96.88C24.66 96.12 24.24 95.52 23.4 95.08C22.56 94.64 21.44 94.28 20.04 94C18.68 93.68 17.18 93.36 15.54 93.04C13.9 92.68 12.24 92.22 10.56 91.66C8.92 91.1 7.4 90.36 6 89.44C4.64 88.52 3.54 87.32 2.7 85.84C1.86 84.32 1.44 82.44 1.44 80.2C1.44 77.6 2.16 75.24 3.6 73.12C5.08 70.96 7.26 69.24 10.14 67.96C13.06 66.68 16.68 66.04 21 66.04C23.84 66.04 26.64 66.34 29.4 66.94C32.16 67.54 34.64 68.46 36.84 69.7L32.58 79.96C30.5 78.92 28.48 78.14 26.52 77.62C24.6 77.1 22.72 76.84 20.88 76.84C19.52 76.84 18.44 76.96 17.64 77.2C16.84 77.44 16.26 77.76 15.9 78.16C15.58 78.56 15.42 79 15.42 79.48C15.42 80.2 15.84 80.78 16.68 81.22C17.52 81.62 18.62 81.96 19.98 82.24C21.38 82.52 22.9 82.82 24.54 83.14C26.22 83.46 27.88 83.9 29.52 84.46C31.16 85.02 32.66 85.76 34.02 86.68C35.42 87.6 36.54 88.8 37.38 90.28C38.22 91.76 38.64 93.6 38.64 95.8C38.64 98.36 37.9 100.72 36.42 102.88C34.98 105 32.82 106.72 29.94 108.04C27.06 109.32 23.44 109.96 19.08 109.96ZM70.0936 67H84.2536V109H70.0936V67ZM57.0136 109H42.8536V67H57.0136V109ZM71.0536 93.52H56.0536V81.88H71.0536V93.52ZM86.5162 109L104.876 67H118.796L137.156 109H122.516L108.956 73.72H114.476L100.916 109H86.5162ZM97.4363 101.68L101.036 91.48H120.356L123.956 101.68H97.4363ZM139.416 109V67H161.856C167.656 67 171.936 68.04 174.696 70.12C177.456 72.16 178.836 74.78 178.836 77.98C178.836 80.1 178.236 82 177.036 83.68C175.876 85.32 174.176 86.62 171.936 87.58C169.696 88.54 166.936 89.02 163.656 89.02L164.856 85.78C168.136 85.78 170.956 86.24 173.316 87.16C175.716 88.08 177.556 89.42 178.836 91.18C180.156 92.9 180.816 94.98 180.816 97.42C180.816 101.06 179.296 103.9 176.256 105.94C173.256 107.98 168.856 109 163.056 109H139.416ZM153.336 99.1H161.856C163.416 99.1 164.576 98.82 165.336 98.26C166.136 97.7 166.536 96.88 166.536 95.8C166.536 94.72 166.136 93.9 165.336 93.34C164.576 92.78 163.416 92.5 161.856 92.5H152.376V83.14H159.936C161.536 83.14 162.696 82.88 163.416 82.36C164.176 81.8 164.556 81.02 164.556 80.02C164.556 78.98 164.176 78.2 163.416 77.68C162.696 77.16 161.536 76.9 159.936 76.9H153.336V99.1ZM181.262 109L199.622 67H213.542L231.902 109H217.262L203.702 73.72H209.222L195.662 109H181.262ZM192.182 101.68L195.782 91.48H215.102L218.702 101.68H192.182ZM232.662 109V100.3L256.062 73.06L257.802 77.98H233.262V67H270.282V75.7L246.882 102.94L245.142 98.02H271.242V109H232.662ZM273.854 109V100.3L297.254 73.06L298.994 77.98H274.454V67H311.474V75.7L288.074 102.94L286.334 98.02H312.434V109H273.854Z" fill="black"/>
</svg>
